<svg width="41" height="38" viewBox="0 0 41 38" fill="none" xmlns="http://www.w3.org/2000/svg">
<path d="M27.1194 6.32142H30.5093C31.4084 6.32142 32.2707 6.65442 32.9064 7.24717C33.5421 7.83992 33.8993 8.64386 33.8993 9.48213V31.6071C33.8993 32.4454 33.5421 33.2493 32.9064 33.8421C32.2707 34.4348 31.4084 34.7678 30.5093 34.7678H21.187M6.77979 21.3348V9.48213C6.77979 8.64386 7.13694 7.83992 7.77267 7.24717C8.40841 6.65442 9.27066 6.32142 10.1697 6.32142H13.5597M15.2546 3.16071H25.4244C26.3605 3.16071 27.1194 3.86826 27.1194 4.74106V7.90178C27.1194 8.77458 26.3605 9.48213 25.4244 9.48213H15.2546C14.3185 9.48213 13.5597 8.77458 13.5597 7.90178V4.74106C13.5597 3.86826 14.3185 3.16071 15.2546 3.16071Z" stroke="black" stroke-width="2" stroke-linecap="round" stroke-linejoin="round"/>
<path d="M5.05 28.7735C4.98333 28.597 4.98333 28.403 5.05 28.2265C5.69933 26.68 6.80153 25.3577 8.21686 24.4272C9.63219 23.4967 11.2969 23 13 23C14.7031 23 16.3678 23.4967 17.7831 24.4272C19.1985 25.3577 20.3007 26.68 20.95 28.2265C21.0167 28.403 21.0167 28.597 20.95 28.7735C20.3007 30.32 19.1985 31.6423 17.7831 32.5728C16.3678 33.5033 14.7031 34 13 34C11.2969 34 9.63219 33.5033 8.21686 32.5728C6.80153 31.6423 5.69933 30.32 5.05 28.7735Z" stroke="black" stroke-width="1.5" stroke-linecap="round" stroke-linejoin="round"/>
<path d="M13 30.8574C14.3254 30.8574 15.3999 29.8019 15.3999 28.5C15.3999 27.1981 14.3254 26.1426 13 26.1426C11.6746 26.1426 10.6001 27.1981 10.6001 28.5C10.6001 29.8019 11.6746 30.8574 13 30.8574Z" stroke="black" stroke-width="1.5" stroke-linecap="round" stroke-linejoin="round"/>
</svg>
