<svg width="54" height="53" viewBox="0 0 54 53" fill="none" xmlns="http://www.w3.org/2000/svg">
<ellipse cx="27" cy="26.5" rx="27" ry="26.5" fill="#F9D373"/>
<path d="M27.9537 40.0657L40.2498 27.475M32.3332 17.5L19.011 31.0945C18.4173 31.6883 18.0838 32.4937 18.0838 33.3333C18.0838 34.173 18.4173 34.9783 19.011 35.5722C19.6048 36.1658 20.4101 36.4993 21.2498 36.4993C22.0895 36.4993 22.8948 36.1658 23.4887 35.5722L36.8108 21.9777C37.9981 20.79 38.6651 19.1794 38.6651 17.5C38.6651 15.8206 37.9981 14.21 36.8108 13.0223C35.6232 11.835 34.0125 11.168 32.3332 11.168C30.6538 11.168 29.0432 11.835 27.8555 13.0223L14.5317 26.6153C12.75 28.397 11.749 30.8136 11.749 33.3333C11.749 35.8531 12.75 38.2697 14.5317 40.0514C16.3135 41.8332 18.7301 42.8341 21.2498 42.8341C23.7696 42.8341 26.1862 41.8332 27.9679 40.0514" stroke="black" stroke-width="2" stroke-linecap="round" stroke-linejoin="round"/>
</svg>
